# xmcd CD database file
#
# Track frame offsets:
#	150
#	14721
#	28544
#	42306
#	56046
#	69230
#	83201
#	95826
#	108933
#	121672
#	134574
#	147123
#	160158
#	174574
#	188322
#	200834
#	214010
#	227787
#	244088
#	255873
#	268845
#	281980
#	294221
#	306705
#	317485
#	328945
#
# Disc length: 4534 seconds
#
# Revision: 5
# Processed by: cddbd v1.5.2PL0 Copyright (c) Steve Scherf et al.
# Submitted via: CDex 1.70beta2
#
DISCID=8411b41a
DTITLE=Bob Wills - Take Me Back To Tulsa  -  Disc 1
DYEAR=2002
DGENRE=Country
TTITLE0=Nancy Jane
TTITLE1=Sunbonnet Sue
TTITLE2=Osage Stomp
TTITLE3=Get With It
TTITLE4=Spanish Two Step
TTITLE5=Maiden's Prayer
TTITLE6=I Ain't Got Nobody
TTITLE7=Who Walks In When I Walk Out
TTITLE8=Oklahoma Rag
TTITLE9=Smith's Reel
TTITLE10=Weary Of The Same Ol' Stuff
TTITLE11=No Matter How She Done It
TTITLE12=Bluin' The Blues
TTITLE13=Red Hot Gal Of Mine
TTITLE14=Steel Guitar Rag
TTITLE15=What's The Matter With The Mill
TTITLE16=Sugar Blues
TTITLE17=Basin Street Blues
TTITLE18=Too Busy
TTITLE19=Fan It
TTITLE20=There's No Disappointment In Heaven
TTITLE21=Swing Blues No. 1
TTITLE22=Playboy Stomp
TTITLE23=Blue Yodel No. 1
TTITLE24=Never No More Hard Time Blues
TTITLE25=Oozlin' Daddy Blues
EXTD=YEAR: 2002
EXTT0=
EXTT1=
EXTT2=
EXTT3=
EXTT4=
EXTT5=
EXTT6=
EXTT7=
EXTT8=
EXTT9=
EXTT10=
EXTT11=
EXTT12=
EXTT13=
EXTT14=
EXTT15=
EXTT16=
EXTT17=
EXTT18=
EXTT19=
EXTT20=
EXTT21=
EXTT22=
EXTT23=
EXTT24=
EXTT25=
PLAYORDER=
